<svg version="1" xmlns="http://www.w3.org/2000/svg" width="1776" height="1776" viewBox="0 0 1332.000000 1332.000000"><path d="M560 286.9c-2.5.3-7.3.6-10.7.6-3.5 0-6.3.2-6.3.5s-2.8.5-6.3.6c-5.4 0-10.6.4-28.2 1.9-5.8.5-16.5 1.6-20 2-1.6.3-5.7.7-9 1-3.3.3-7.1.8-8.5 1-1.4.3-4.5.7-7 1-4 .4-6.6.8-15 2-1.4.2-4.7.7-7.5 1.1-2.7.3-5.8.8-6.7 1-1 .2-2.6.6-3.5.8-1 .2-3.8.7-6.3 1-2.5.3-5.6.8-7 1.1-1.4.3-3.8.7-5.5 1-1.6.2-4.1.7-5.5.9-4.9 1.1-7.5 1.6-10.5 2.1-16.1 2.7-75.1 16.6-82.5 19.5-1.4.5-3.6 1.1-5 1.4-1.4.2-4.5 1.1-7 1.9-5.9 2-16.5 5.1-20.5 6.1-2.1.5-39.8 13.2-47.2 15.9-2.2.9-4.4 1.3-4.7 1-.3-.4-.6-.2-.6.4 0 .6-1.2 1.4-2.7 1.8-2.3.5-30.5 11.4-38.3 14.7-1.4.6-2.9 1.2-3.5 1.3-.5.2-3.5 1.4-6.5 2.8-10.8 4.9-20.5 9.2-21 9.3-.7.1-12.2 5.4-14 6.5-.8.5-2.2 1.2-3 1.5-5.9 2.2-59.1 29.4-61.6 31.5-.8.6-1.4.8-1.4.4 0-.5-.8-.1-1.7.7-1 .8-6.7 4.1-12.8 7.3-6 3.2-13.5 7.1-16.5 8.8-3 1.6-7.3 3.9-9.5 5.1-2.2 1.1-4.3 2.5-4.7 3.1-.4.5-.8.6-.8.1s-.7-.3-1.5.4c-.8.6-4.2 2.7-7.7 4.5C4.2 461.6 1 463.9 1 466.8c0 4.1 3.4 5.5 12.5 5.3 9.9-.2 10.6-.2 20.5 0 4.1.1 8 0 8.5-.1.6-.1 1.2-.2 1.5-.1.3.1 9.7.2 21 .1 23.9-.1 23.2-.1 33 .1 4.1.1 8 0 8.5-.1.6-.1 1.2-.2 1.5-.1.3.1 9.7.2 21 .1 23.9-.1 23.2-.1 33 .1 4.1.1 8 0 8.5-.1.6-.1 1.3-.2 1.8-.1 2.6.7 25.7.4 25.7-.2 0-.5.5-.5 1.1-.2 1.2.8 12.9 1.2 12.9.5s8.9-.4 9.7.3c.3.4 1.3.2 2.3-.3 1-.5 2-.7 2.3-.3.8.7 9.7 1 9.7.3s8.9-.4 9.7.3c.3.4 1.3.2 2.2-.3 1-.5 2.3-.5 2.9-.1.7.4 3.3.5 5.8.1 2.4-.4 4.7-.3 5 .2.3.4 1.3.4 2.3-.2 1-.5 2.1-.7 2.4-.3.8.7 9.7 1 9.7.3s8.9-.4 9.7.3c.3.4 1.3.2 2.3-.3 1-.5 2-.7 2.3-.3.8.7 9.7 1 9.7.3s8.9-.4 9.7.3c.3.4 1.3.2 2.2-.3 1-.5 2.3-.5 2.9-.1.7.4 3.3.5 5.8.1 2.4-.4 4.7-.3 5 .2.3.4 1.3.4 2.3-.2 1-.5 2.1-.7 2.4-.3.8.7 9.7 1 9.7.3s8.9-.4 9.7.3c.3.4 1.3.2 2.3-.3 1-.5 2-.7 2.3-.3.8.7 9.7 1 9.7.3s8.9-.4 9.7.3c.3.4 1.3.2 2.2-.3 1-.5 2.3-.5 2.9-.1.7.4 3.3.5 5.8.1 2.4-.4 4.7-.3 5 .2.3.4 1.3.4 2.3-.2 1-.5 2.1-.7 2.4-.3.8.7 9.7 1 9.7.3s8.9-.4 9.7.3c.3.4 1.3.2 2.3-.3 1-.5 2-.7 2.3-.3.8.7 9.7 1 9.7.3s8.9-.4 9.7.3c.3.4 1.3.2 2.2-.3 1-.5 2.3-.5 2.9-.1.7.4 3.3.5 5.8.1 2.4-.4 4.7-.3 5 .2.3.4 1.3.4 2.3-.2 1-.5 2.1-.7 2.4-.3.8.7 9.7 1 9.7.3s8.9-.4 9.7.3c.3.4 1.3.2 2.3-.3 1-.5 2-.7 2.3-.3.8.7 9.7 1 9.7.3s8.9-.4 9.7.3c.3.4 1.3.2 2.3-.3 1-.5 2-.7 2.3-.4.7.7 9.7 1.1 9.7.4 0-.3 2.1-.4 4.7-.3 2.7.1 4.8.2 4.8.3 0 .6 4.7.5 5.1-.1.2-.5 1.5-.4 2.8.1 1.2.4 2.9.4 3.6 0 .8-.5 1.8-.6 2.3-.3 1.1.7 8.7 1 8.7.3s8.9-.4 9.7.3c.3.4 1.3.2 2.3-.3 1-.5 2-.7 2.3-.3.8.7 9.7 1 9.7.3s9-.3 9.7.4c.3.3 1.4.1 2.4-.4 1-.6 2-.6 2.3-.2.3.5 2.6.6 5 .2 2.5-.4 5.1-.3 5.8.1.6.4 2 .3 2.9-.2 1-.5 2-.5 2.3-.1.3.5 2.8.6 5.6.2 2.8-.4 5.3-.3 5.6.2.3.4 1.3.4 2.3-.2 1-.5 2.1-.7 2.4-.3.8.7 9.7 1 9.7.3s8.9-.4 9.7.3c.3.4 1.3.2 2.3-.3 1-.5 2-.7 2.3-.3.8.7 9.7 1 9.7.3s8.9-.4 9.7.3c.3.4 1.3.2 2.2-.3 1-.5 2.3-.5 3-.1.7.5 3 .5 5.1.1 2.1-.4 4.4-.4 5.1.1.7.4 2.1.3 3-.2 1-.5 2-.5 2.3-.1.3.5 2.6.6 5 .2 2.5-.4 5.1-.3 5.8.1.6.4 1.9.4 2.9-.1.9-.5 1.9-.7 2.2-.3.8.7 9.7 1 9.7.3 0-.3 2.1-.4 4.7-.3 2.7.1 4.8.2 4.8.3 0 .6 4.7.5 5.1-.1.2-.5 1.5-.4 2.8.1 1.2.4 2.9.4 3.6 0 .8-.5 1.8-.6 2.3-.3 1.1.7 8.7 1 8.7.3s8.9-.4 9.7.3c.3.4 1.3.2 2.3-.3 1-.5 2-.7 2.3-.3.8.7 9.7 1 9.7.3s9-.3 9.7.4c.3.3 1.4.1 2.4-.4 1-.6 2-.6 2.3-.2.3.5 2.6.6 5 .2 2.5-.4 5.1-.3 5.8.1.6.4 2 .3 2.9-.2 1-.5 2-.5 2.3-.1.3.5 2.8.6 5.6.2 2.8-.4 5.3-.3 5.6.2.3.4 1.3.4 2.3-.2 1-.5 2.1-.7 2.4-.3.8.7 9.7 1 9.7.3s8.9-.4 9.7.3c.3.4 1.3.2 2.3-.3 1-.5 2-.7 2.3-.3.8.7 9.7 1 9.7.3s8.9-.4 9.7.3c.3.4 1.3.2 2.2-.3 1-.5 2.3-.5 3-.1.7.5 3 .5 5.1.1 2.1-.4 4.4-.4 5.1.1.7.4 2.1.3 3-.2 1-.5 2-.5 2.3-.1.3.5 2.6.6 5 .2 2.5-.4 5.1-.3 5.8.1.6.4 2 .3 2.9-.2 1.2-.6 2-.5 2.4.1.4.6 1 .8 1.5.5.4-.3 7-.7 14.6-1 7.7-.3 15.3-.8 16.9-.9 1.7-.2 6.4-.7 10.5-1.1 10.3-1 10.9-1.1 16.5-1.9 2.8-.4 6.6-.9 8.5-1.2 1.9-.2 4.2-.6 5-.9.8-.2 3.2-.6 5.3-.9 2.1-.4 7.9-1.5 13-2.7 8.7-1.9 10.3-2.3 15.2-3.3 7.6-1.6 35.7-10.4 47.2-14.7 26.4-9.9 41.9-17.1 73.2-34.1 7.9-4.3 14.8-7.8 15.2-7.8.5 0 .9-.5.9-1.2 0-.6.3-.8.7-.5.3.4 1.1.3 1.7-.2.6-.5 4.1-2.5 7.9-4.5l6.7-3.6v129.5l-7 3.3c-21.6 10.3-35 32.3-34.4 56.2.4 16.7 3.2 24.7 13.3 38.4 3.7 5 16.3 15.6 18.6 15.6.7 0 1.8.7 2.5 1.5.7.9 1.5 1.4 1.7 1.1.3-.2 2.4.4 4.7 1.5 6.2 2.7 10.8 3.4 22.1 3.3 6.8 0 11.9-.6 16-1.9 6.8-2.1 15.2-6 17.3-8.1.7-.8 1.7-1.4 2.1-1.4 1.2 0 10.2-8.9 13.7-13.5 4.7-6.1 9.9-17.9 10.9-24.5 0-.3.3-1 .6-1.5 1.3-2.2.2-23-1.4-26.8-.9-2-1.4-3.7-1.2-3.7.9 0-4.4-11-7.3-15.2-6.4-9.3-16.5-17.7-26.9-22.4-3.8-1.7-6.1-4.8-4.5-5.8.9-.5.7-10-.2-11.5-.4-.6-.4-1.1.1-1.1.9 0 .8-20.2-.1-22.5-.3-.8-.2-1.5.2-1.5.9 0 .7-5.4-.3-6.9-.3-.6-.3-1.1.2-1.1.9 0 .8-13.8-.1-14.7-.3-.3-.1-1.2.5-2 .9-1 .8-1.3 0-1.3-.7 0-.9-.5-.5-1.1.6-1 .9-11.1.4-13.4-.1-.6-.2-1.2-.1-1.5.3-.7.3-12.3.1-13.5-.1-.6-.1-1.5 0-2 .6-2.9.4-13.5-.3-13.5-.5 0-.5-.5-.2-1.1.9-1.4.9-13.4.1-14.8-.4-.6-.3-1.1.1-1.1.9 0 .8-7.3-.1-9.7-.3-.7-.2-1.3.2-1.3s.6-2.7.5-6c-.2-6.9-1.1-6 12.7-13.2 4.7-2.5 11-5.9 14-7.5 3-1.6 10-5.4 15.5-8.4 5.5-2.9 11.2-6.1 12.8-6.9 1.5-.8 6.7-3.6 11.5-6.1 4.8-2.5 10.4-5.6 12.5-6.8 2.2-1.2 7.8-4.3 12.5-6.8 4.8-2.6 11.9-6.4 15.7-8.5 3.9-2.1 9-4.8 11.5-6 2.5-1.3 4.7-2.5 5-2.8.3-.3 3.7-2.1 7.5-4.2 8.1-4.2 10.1-7.3 7-10.8l-1.8-2-382.1.1c-210.2.1-384.1.5-386.6.8z"/><path d="M353.7 518.6c-.1.1-4 .4-8.7.8-4.7.3-9.5.8-10.8 1-4.5 1-17.7 4.7-19.7 5.5-12 5.4-18.6 8.9-24.3 12.9-8.1 5.6-22.5 19.8-27.2 26.7-1.8 2.7-3.6 5.2-4 5.5-1.2 1-7.9 14.7-10.3 21-4.7 12.7-6.5 21.9-7.2 37.3-.4 8.7-.3 9.9 1.5 11.7 2 2 3.7 2 375.4 2 313.8-.1 373.7-.3 375.2-1.5 1.8-1.3 1.9-3.9 2-60.3 0-47-.2-59.3-1.3-60.8-1.2-1.7-15.6-1.7-320.9-1.8-175.7-.1-319.6 0-319.7 0zM250.4 691.6c-1.6 1.5-2.1 3-1.8 5.5.4 4.6 1.3 15.1 1.9 22.2.2 3.2.6 6.6.9 7.5.3 1 .8 3.7 1.1 6.2.6 4.3 2.9 17.2 3.9 21.5.3 1.1 1.1 4.9 1.9 8.5 10.7 46.9 34.1 96.4 65 137 9.6 12.6 12.9 16.1 15.2 16.2 1.7.1 19.5-7.9 28.8-12.8 1.5-.8 2.7-1.2 2.7-.8 0 .3.6.2 1.3-.4 1-.8 5.6-2.8 20.2-8.7 1.1-.4 2.5-.9 3-1.1 2.3-.6 8-2.9 8.5-3.4s2.1-1 4.5-1.4c.6-.1 1.5-.4 2-.7 1.2-.8 8.5-3.2 10.3-3.5.8-.1 1.6-.5 1.9-.8.9-.9 1.2-8 .3-9.1-.6-.8-3.8-10.5-4.5-13.5 0-.3-1-3.7-2.2-7.5-1.2-3.9-3.1-10.6-4.3-15-2.8-10.5-3-11.5-3.7-15-.3-1.7-.9-3.8-1.5-4.8-.5-1-.7-2.1-.4-2.4.2-.3 0-1.6-.5-3s-1.2-4.2-1.5-6.2c-.3-2-.9-5.2-1.4-7.1-.5-1.9-1.1-5.2-1.4-7.4-.4-2.1-.8-4.1-1-4.5-.2-.3-.7-3.3-1.1-6.6-.3-3.2-.8-6.2-1.1-6.6-.2-.3-.6-2.6-.8-5-.3-2.4-.8-6-1.1-8-.7-4.4-1.3-9.6-2.1-16.9-.3-3-.7-7.3-.9-9.5-1.2-11.4-2.2-27.3-2.4-37.7-.1-3.8-.5-5-2.3-6-1.8-.9-17.7-1.2-68.8-1.3-66.3 0-66.5 0-68.6 2.1zM421.4 691.5c-1.7 1.7-2.1 3.4-1.5 5.5.1.3.4 5.9.7 12.5.6 13.5 1.1 21 1.4 21 .1 0 .3 1.8.5 4 1 11.8 1.6 17.3 1.9 19.2.3 1.1.7 4.4 1.1 7.3.4 2.9.9 6.2 1.1 7.4.3 1.2.7 3.2.9 4.6 1.3 8.5 3.3 19.5 4.5 24.5.6 2.2 1.2 5.1 1.4 6.5.2 1.4.9 4.5 1.6 7 .7 2.5 1.4 5.6 1.7 6.9.2 1.4 1.3 5.8 2.5 10 1.1 4.1 2.1 8 2.3 8.6.1.5.5 1.7.8 2.5 1.1 2.9 3.1 9.5 3.2 10.5.2 3.4 6.1 19.3 7.6 20.7 1.8 1.5 4.2 1.7 9.4.4 1.1-.3 5.8-1.4 10.5-2.6 4.7-1.1 9.4-2.3 10.5-2.5 1.1-.2 2.1-.4 2.3-.6.3-.2 1-.4 6.7-1.4 2.8-.5 5.2-.9 5.5-1 2.3-.6 7.1-1.6 10-2 1.9-.3 4.8-.8 6.3-1.1 1.6-.3 3.8-.7 5-.9 1.2-.1 5.7-.8 10-1.4 4.3-.7 8.1-1 8.4-.7.3.3 1.3.1 2.2-.3.9-.5 4.8-1.2 8.6-1.5 3.9-.3 8.8-.9 11-1.2 2.2-.2 7.6-.7 12-.9 4.4-.2 8-.5 8-.6 0-.1 8.9-.6 15.6-.8 9-.2 8.2 7.3 8.3-79.2.1-47-.3-77.5-.9-79.2-.5-1.5-1.6-2.8-2.5-2.8-.8-.1-40.9-.2-89.1-.3-86.4-.1-87.6-.1-89.5 1.9zM635.6 690.5c-2.1 1.1-2.1 1.2-2.4 78-.1 42.4 0 78 .3 79.2.6 2.6 3.1 3.2 16 3.8 5 .2 12.2.6 16 1 3.9.3 9.3.7 12 1 2.8.2 6.8.6 9 .9 2.2.3 5.8.8 8 1 5.9.7 11.8 1.5 22.5 3.3 5.2.8 10.6 1.7 12 1.9 4 .5 30.1 6.1 36.5 7.7 14.5 3.7 15.8 3.9 17.5 2 2.3-2.4 12.9-35.2 15.6-48.3.3-1.4 1-4.3 1.6-6.5.6-2.2 1.2-4.9 1.4-6 .1-1.1.3-2 .4-2 .1 0 .3-.7.5-1.5 1.5-7 2.2-10.5 2.9-14.3.2-1.2.7-3.3 1-4.7.3-1.4.8-3.6 1-5 .2-1.4.9-5.2 1.4-8.5.6-3.3 1.4-8.5 1.7-11.5.4-3 .9-5.8 1-6.1.2-.3.7-3.4 1-7 .3-3.5.8-8.2 1-10.4.8-7.4 1.6-17 2.1-25 .2-4.4.6-10.7.8-14.1.6-11 10.6-9.9-90.6-9.9-58.9 0-88.8.3-90.2 1zM849.2 690.4c-.9.5-1.9 1-2.1 1.2-.5.4-.7 3.2-1.6 19.9-.7 12.9-.9 16.3-2 26-.3 2.7-.7 7.2-1 10-.7 6.7-1.3 11.4-1.9 15-.3 1.6-.8 5-1.1 7.5-.3 2.5-1 6.7-1.6 9.5-.5 2.7-1.1 6.6-1.4 8.5-.3 1.9-.7 4.5-1 5.7-.8 3.6-1.4 6.5-2 9.8-.9 4.4-3.3 14.6-6.2 26-1.3 5.5-2.6 10.7-2.8 11.5-.2.8-.4 1.6-.5 1.7-.2.2-.3.6-.4 1-1.3 5.1-3.4 11.9-6.7 22.2-2.2 6.9-3.7 13.2-3.3 14.3.6 2.1 1 2.3 12.4 6.3 16 5.7 41.2 16.1 55.8 23 8.4 4 16.1 7.1 17 6.8 3.2-.9 24.6-29.3 34.1-45.3 2.8-4.7 5.4-9 5.9-9.5.4-.6 1.5-2.4 2.4-4 .8-1.7 3.8-7.3 6.6-12.6s4.8-10 4.5-10.3c-.4-.3-.1-.6.5-.6.7 0 1.2-.5 1.2-1 0-.6 1.1-3.3 2.5-6.2 1.4-2.8 2.5-5.8 2.5-6.5 0-.7.5-1.3 1.1-1.3.5 0 .8-.4.5-.8-.3-.5.1-2 .8-3.4 1.2-2.3 8.4-21.6 9-24.3.2-.6.6-1.7.9-2.5.3-.8.8-2.4 1-3.5.3-1.1 1.5-5.4 2.7-9.5 2.9-10.1 7.5-31.2 8.5-39.5.2-1.7.7-4.8 1.1-7 .7-4.4.9-6.1 1.8-15.5 1.4-14.6 1.4-19.8.1-21.7-1.3-1.7-4.8-1.8-68.5-1.8-38.4 0-67.8.4-68.8.9zM578.7 881.6c-.1.1-4.5.5-9.7.9-5.2.4-10.4.9-11.4 1.1-1.1.2-4.9.6-8.5.9-3.6.3-7.3.7-8.1 1-.8.2-3.5.7-6 .9-4.6.5-15.5 2.2-20 3.1-1.4.3-4.1.8-6 1.1-1.9.3-7.3 1.4-12 2.4s-9.6 2.1-11 2.4c-3.5.7-10.8 2.5-15.2 3.7-3.9 1-6.3 5-4.7 7.9.5.8 2.2 4.6 4 8.5 8.4 18.8 22.7 46.7 29.7 58 1.7 2.7 4.1 6.8 5.3 8.9 1.2 2.2 4.8 8 8 12.8 3.2 4.9 5.9 9.4 5.9 9.9s.4.9.8.9 1.6 1.5 2.7 3.2c1 1.8 6.2 9.2 11.6 16.4 9.5 12.9 9.8 13.2 14.8 14.4 2.8.7 6.8 1.4 8.9 1.5 2 .2 3.7.4 3.7.5 0 .3 3.7.8 9.5 1.4 3 .3 6.5.8 7.6 1 1.2.2 6.4.7 11.6 1.1 8.8.6 9.7.5 11.4-1.3 1.8-2 1.9-5.1 1.8-81.1 0-64.4-.3-79.3-1.4-80.6-1.1-1.3-3.2-1.5-12.2-1.3-6 .1-11 .3-11.1.4zM634.7 882.4c-1.6 1.6-1.7 7.8-1.7 81 0 93-1.6 83.2 13.2 82.2 5.1-.4 10.7-.9 12.3-1.1 6-.8 18.7-2.7 21.1-3.1 1.3-.2 3.6-.6 5.2-.9 7-1.2 7.8-1.8 13.2-9.1 3-4.1 6-8 6.5-8.7 2.3-2.9 14.7-21 19.2-28.3 5.4-8.5 17.5-28.8 19.3-32.4 1.3-2.5 2.5-4.7 2.9-5 1.4-1.1 19.3-38.4 23.2-48.3 2.4-6.1 1.4-8.2-4.4-9.7-2.3-.6-5.4-1.5-6.9-2-1.6-.5-2.8-.7-2.8-.5 0 .3-1.2 0-2.7-.6-1.5-.6-4.6-1.3-6.8-1.6-2.2-.3-4.8-.9-5.7-1.4-1-.6-1.8-.7-1.8-.4 0 .3-1 .1-2.1-.6-1.6-.8-2-.8-1.4.1.5.9.3.9-1.1.2-1.1-.5-3.9-1.3-6.4-1.7-2.5-.4-5.2-.9-6.1-1-.9-.2-3.2-.6-5-.9-11.6-1.8-13.4-2.1-20.9-3.1-2.5-.3-6.5-.8-9-1.2-2.5-.3-6.5-.7-9-.9-2.5-.2-6.7-.6-9.5-.8-2.7-.3-10.9-.8-18.1-1.2-11.5-.6-13.2-.5-14.7 1zM420 914.6c-12.1 4.4-26 9.9-32.8 13-2.9 1.3-5.5 2.4-5.9 2.4-2 0-17.4 8.3-18.2 9.8-1.7 3.3-.7 4.6 15.3 18.5 5 4.3 7.5 6.4 11.6 9.7 2.5 1.9 4.7 3.8 4.8 4.2.2.4.8.8 1.2.8.8 0 12 7.8 15.7 11 .7.5 1.4 1 1.7 1 .3 0 4.3 2.4 8.8 5.2 4.6 2.9 9.2 5.9 10.3 6.6 1.1.6 3.6 2 5.5 3 1.9.9 3.7 1.9 4 2.2.9 1 23.3 11.7 33.3 15.9 10.2 4.4 12.4 4.4 14.6.3 1.1-2.1 1.3-1.9-8.4-17.4-3.8-6.2-7.5-12.3-8.2-13.5-2.6-4.9-4.8-8.8-5.4-9.3-.6-.6-1.6-2.6-13.3-25.7-4.7-9.4-8.6-17.4-8.6-17.7 0-.5-6.3-14.6-8.8-19.6-2.4-4.7-5.3-4.8-17.2-.4zM798.5 916c-1.4 2.7-2.5 5.6-2.5 6.5 0 .8-.4 1.5-1 1.5-.5 0-1 .7-1 1.5s-.4 2.3-.9 3.3c-.5.9-5.2 10.5-10.5 21.2-10.8 22-16.3 32.1-26.3 48.5-.7 1.1-1.5 2.7-1.9 3.5-.4.8-1 1.7-1.4 2-1.6 1.3-6.5 10.8-6.6 12.8-.1 3.1 3 5.2 6.4 4.2 10-2.9 39.6-17.4 56.3-27.6 9-5.4 23.8-15.2 24.9-16.4.3-.4 3.4-2.7 7-5.3 3.6-2.5 7.9-5.8 9.5-7.2 1.7-1.5 4.5-3.9 6.4-5.3 1.8-1.5 6.5-5.6 10.3-9.2 8.7-8.2 8.7-10.3 0-14.5-6.3-3.1-11.2-5.2-12.7-5.5-.5-.1-2.6-1-4.5-2s-7.8-3.4-13-5.5c-5.2-2-10.4-4.1-11.5-4.5-5.6-2.5-20-7-22.1-7-1.8 0-2.9 1.1-4.9 5z"/></svg>